<?xml version="1.0" encoding="utf-8" standalone="no"?>
<!DOCTYPE svg PUBLIC "-//W3C//DTD SVG 1.1//EN"
  "http://www.w3.org/Graphics/SVG/1.1/DTD/svg11.dtd">
<svg xmlns:xlink="http://www.w3.org/1999/xlink" width="1008pt" height="504pt" viewBox="0 0 1008 504" xmlns="http://www.w3.org/2000/svg" version="1.1">
 <metadata>
  <rdf:RDF xmlns:dc="http://purl.org/dc/elements/1.1/" xmlns:cc="http://creativecommons.org/ns#" xmlns:rdf="http://www.w3.org/1999/02/22-rdf-syntax-ns#">
   <cc:Work>
    <dc:type rdf:resource="http://purl.org/dc/dcmitype/StillImage"/>
    <dc:date>2023-01-26T15:21:36.491595</dc:date>
    <dc:format>image/svg+xml</dc:format>
    <dc:creator>
     <cc:Agent>
      <dc:title>Matplotlib v3.6.2, https://matplotlib.org/</dc:title>
     </cc:Agent>
    </dc:creator>
   </cc:Work>
  </rdf:RDF>
 </metadata>
 <defs>
  <style type="text/css">*{stroke-linejoin: round; stroke-linecap: butt}</style>
 </defs>
 <g id="figure_1">
  <g id="patch_1">
   <path d="M 0 504 
L 1008 504 
L 1008 0 
L 0 0 
z
" style="fill: #ffffff"/>
  </g>
  <g id="axes_1">
   <g id="patch_2">
    <path d="M 126 448.56 
L 750.96 448.56 
L 750.96 60.48 
L 126 60.48 
z
" style="fill: #ffffff"/>
   </g>
   <g id="PathCollection_1">
    <path d="M 750.96 440.757044 
L 750.96 439.936 
L 750.96 431.312 
L 750.96 422.688 
L 750.96 414.064 
L 750.96 405.44 
L 750.96 396.816 
L 750.96 388.192 
L 750.96 379.568 
L 750.96 370.944 
L 750.96 362.32 
L 750.96 353.696 
L 750.96 345.072 
L 750.96 336.448 
L 750.96 327.824 
L 750.96 319.2 
L 750.96 310.576 
L 750.96 301.952 
L 750.96 293.328 
L 750.96 284.704 
L 750.96 276.08 
L 750.96 267.456 
L 750.96 258.832 
L 750.96 250.208 
L 750.96 241.584 
L 750.96 232.96 
L 750.96 224.336 
L 750.96 215.712 
L 750.96 207.088 
L 750.96 198.464 
L 750.96 189.84 
L 750.96 181.216 
L 750.96 172.592 
L 750.96 163.968 
L 750.96 155.344 
L 750.96 146.72 
L 750.96 138.096 
L 750.96 129.472 
L 750.96 120.848 
L 750.96 112.224 
L 750.96 103.6 
L 750.96 94.976 
L 750.96 86.352 
L 750.96 77.728 
L 750.96 69.104 
L 750.96 60.48 
L 719.712 60.48 
L 688.464 60.48 
L 657.216 60.48 
L 625.968 60.48 
L 594.72 60.48 
L 563.472 60.48 
L 532.224 60.48 
L 500.976 60.48 
L 469.728 60.48 
L 438.48 60.48 
L 407.232 60.48 
L 375.984 60.48 
L 344.736 60.48 
L 313.488 60.48 
L 282.24 60.48 
L 250.992 60.48 
L 219.744 60.48 
L 216.647351 60.48 
L 216.647351 69.104 
L 216.647351 77.728 
L 216.647351 86.352 
L 216.647351 94.976 
L 217.618088 103.6 
L 217.618088 112.224 
L 218.65924 120.848 
L 216.648291 129.472 
L 219.744 131.1808 
L 244.798703 138.096 
L 244.799116 146.72 
L 247.419081 155.344 
L 247.551279 163.968 
L 247.895351 172.592 
L 247.895351 181.216 
L 247.895351 189.84 
L 247.895351 198.464 
L 250.992 207.010306 
L 251.273514 207.088 
L 251.283843 215.712 
L 263.660108 224.336 
L 270.627568 232.96 
L 278.369351 241.584 
L 278.922281 250.208 
L 280.114088 258.832 
L 280.114088 267.456 
L 282.24 268.519366 
L 308.023648 276.08 
L 301.875568 284.704 
L 313.488 291.112126 
L 321.516946 293.328 
L 313.488 297.758639 
L 312.361946 301.952 
L 313.488 302.551094 
L 342.565256 310.576 
L 344.736 318.966919 
L 345.017514 319.2 
L 368.279496 327.824 
L 369.791529 336.448 
L 375.984 340.719016 
L 391.761764 345.072 
L 407.232 353.618254 
L 407.513514 353.696 
L 431.845747 362.32 
L 432.287116 370.944 
L 438.48 373.079686 
L 469.728 372.915921 
L 495.843592 379.568 
L 498.44259 388.192 
L 500.976 388.685467 
L 532.224 389.590253 
L 563.472 390.522387 
L 586.278206 396.816 
L 563.763843 405.44 
L 594.72 407.411769 
L 625.968 405.962847 
L 657.216 413.974915 
L 658.182754 414.064 
L 657.216 414.33081 
L 654.686251 422.688 
L 657.216 423.129103 
L 688.464 423.128742 
L 719.712 423.497181 
L 746.918262 431.312 
L 747.237442 439.936 
z
M 531.801307 379.568 
L 532.224 379.490306 
L 532.64627 379.568 
L 532.224 379.801081 
z
" clip-path="url(#p28e4282be9)" style="fill: #0e0e30"/>
   </g>
   <g id="PathCollection_2">
    <path d="M 750.96 441.624039 
L 750.96 440.757044 
L 747.237442 439.936 
L 746.918262 431.312 
L 719.712 423.497181 
L 688.464 423.128742 
L 657.216 423.129103 
L 654.686251 422.688 
L 657.216 414.33081 
L 658.182754 414.064 
L 657.216 413.974915 
L 625.968 405.962847 
L 594.72 407.411769 
L 563.763843 405.44 
L 586.278206 396.816 
L 563.472 390.522387 
L 532.224 389.590253 
L 500.976 388.685467 
L 498.44259 388.192 
L 495.843592 379.568 
L 469.728 372.915921 
L 438.48 373.079686 
L 432.287116 370.944 
L 431.845747 362.32 
L 407.513514 353.696 
L 407.232 353.618254 
L 391.761764 345.072 
L 375.984 340.719016 
L 369.791529 336.448 
L 368.279496 327.824 
L 345.017514 319.2 
L 344.736 318.966919 
L 342.565256 310.576 
L 313.488 302.551094 
L 312.361946 301.952 
L 313.488 297.758639 
L 321.516946 293.328 
L 313.488 291.112126 
L 301.875568 284.704 
L 308.023648 276.08 
L 282.24 268.519366 
L 280.114088 267.456 
L 280.114088 258.832 
L 278.922281 250.208 
L 278.369351 241.584 
L 270.627568 232.96 
L 263.660108 224.336 
L 251.283843 215.712 
L 251.273514 207.088 
L 250.992 207.010306 
L 247.895351 198.464 
L 247.895351 189.84 
L 247.895351 181.216 
L 247.895351 172.592 
L 247.551279 163.968 
L 247.419081 155.344 
L 244.799116 146.72 
L 244.798703 138.096 
L 219.744 131.1808 
L 216.648291 129.472 
L 218.65924 120.848 
L 217.618088 112.224 
L 217.618088 103.6 
L 216.647351 94.976 
L 216.647351 86.352 
L 216.647351 77.728 
L 216.647351 69.104 
L 216.647351 60.48 
L 213.519423 60.48 
L 213.519423 69.104 
L 213.519423 77.728 
L 213.519423 86.352 
L 213.519423 94.976 
L 214.3823 103.6 
L 214.3823 112.224 
L 215.307769 120.848 
L 213.520258 129.472 
L 219.744 132.907442 
L 238.542847 138.096 
L 238.543678 146.72 
L 243.810073 155.344 
L 244.075804 163.968 
L 244.767423 172.592 
L 244.767423 181.216 
L 244.767423 189.84 
L 244.767423 198.464 
L 247.547804 207.088 
L 247.548835 215.712 
L 249.772108 224.336 
L 250.992 227.141606 
L 258.897838 232.96 
L 274.459604 241.584 
L 275.571049 250.208 
L 276.8783 258.832 
L 276.8783 267.456 
L 282.24 270.137883 
L 302.5041 276.08 
L 290.145838 284.704 
L 311.01934 293.328 
L 308.88647 301.952 
L 313.488 304.400151 
L 335.865427 310.576 
L 339.266128 319.2 
L 344.736 323.476043 
L 356.552701 327.824 
L 363.536508 336.448 
L 375.984 345.033173 
L 376.124733 345.072 
L 376.234234 353.696 
L 407.232 356.028528 
L 425.144482 362.32 
L 426.031678 370.944 
L 438.48 375.236944 
L 469.728 374.90776 
L 488.023772 379.568 
L 490.623422 388.192 
L 500.976 390.208514 
L 532.224 393.90585 
L 563.472 392.876313 
L 577.74827 396.816 
L 563.472 402.233378 
L 532.224 400.309463 
L 525.587039 405.44 
L 532.224 406.42652 
L 563.472 406.466288 
L 594.72 409.403455 
L 625.968 407.581566 
L 651.023962 414.064 
L 646.870343 422.688 
L 657.216 424.491935 
L 688.464 424.491861 
L 719.712 424.730061 
L 742.626151 431.312 
L 743.306546 439.936 
z
" clip-path="url(#p28e4282be9)" style="fill: #2e268c"/>
    <path d="M 532.224 379.801081 
L 532.64627 379.568 
L 532.224 379.490306 
L 531.801307 379.568 
z
" clip-path="url(#p28e4282be9)" style="fill: #2e268c"/>
   </g>
   <g id="PathCollection_3">
    <path d="M 750.96 442.491034 
L 750.96 441.624039 
L 743.306546 439.936 
L 742.626151 431.312 
L 719.712 424.730061 
L 688.464 424.491861 
L 657.216 424.491935 
L 646.870343 422.688 
L 651.023962 414.064 
L 625.968 407.581566 
L 594.72 409.403455 
L 563.472 406.466288 
L 532.224 406.42652 
L 525.587039 405.44 
L 532.224 400.309463 
L 563.472 402.233378 
L 577.74827 396.816 
L 563.472 392.876313 
L 532.224 393.90585 
L 500.976 390.208514 
L 490.623422 388.192 
L 488.023772 379.568 
L 469.728 374.90776 
L 438.48 375.236944 
L 426.031678 370.944 
L 425.144482 362.32 
L 407.232 356.028528 
L 376.234234 353.696 
L 376.124733 345.072 
L 375.984 345.033173 
L 363.536508 336.448 
L 356.552701 327.824 
L 344.736 323.476043 
L 339.266128 319.2 
L 335.865427 310.576 
L 313.488 304.400151 
L 308.88647 301.952 
L 311.01934 293.328 
L 290.145838 284.704 
L 302.5041 276.08 
L 282.24 270.137883 
L 276.8783 267.456 
L 276.8783 258.832 
L 275.571049 250.208 
L 274.459604 241.584 
L 258.897838 232.96 
L 250.992 227.141606 
L 249.772108 224.336 
L 247.548835 215.712 
L 247.547804 207.088 
L 244.767423 198.464 
L 244.767423 189.84 
L 244.767423 181.216 
L 244.767423 172.592 
L 244.075804 163.968 
L 243.810073 155.344 
L 238.543678 146.72 
L 238.542847 138.096 
L 219.744 132.907442 
L 213.520258 129.472 
L 215.307769 120.848 
L 214.3823 112.224 
L 214.3823 103.6 
L 213.519423 94.976 
L 213.519423 86.352 
L 213.519423 77.728 
L 213.519423 69.104 
L 213.519423 60.48 
L 210.391495 60.48 
L 210.391495 69.104 
L 210.391495 77.728 
L 210.391495 86.352 
L 210.391495 94.976 
L 211.146513 103.6 
L 211.146513 112.224 
L 211.956298 120.848 
L 210.392226 129.472 
L 219.744 134.634083 
L 232.286991 138.096 
L 232.288239 146.72 
L 240.201064 155.344 
L 240.600328 163.968 
L 241.639495 172.592 
L 241.639495 181.216 
L 241.639495 189.84 
L 241.639495 198.464 
L 244.072328 207.088 
L 244.07323 215.712 
L 246.018595 224.336 
L 249.601494 232.96 
L 250.992 233.487637 
L 270.549857 241.584 
L 272.219818 250.208 
L 273.642513 258.832 
L 273.642513 267.456 
L 282.24 271.756401 
L 296.984552 276.08 
L 282.24 283.766025 
L 280.849494 284.704 
L 282.24 285.106034 
L 307.265677 293.328 
L 305.410995 301.952 
L 313.488 306.249208 
L 329.165599 310.576 
L 333.74658 319.2 
L 344.736 327.790919 
L 344.825905 327.824 
L 357.281487 336.448 
L 371.940285 345.072 
L 372.105369 353.696 
L 375.984 354.919309 
L 407.232 358.38224 
L 418.443217 362.32 
L 419.776239 370.944 
L 438.48 377.394203 
L 469.728 376.899599 
L 480.203952 379.568 
L 482.804255 388.192 
L 500.976 391.731561 
L 529.44659 396.816 
L 518.885295 405.44 
L 532.224 407.42267 
L 563.472 407.502246 
L 594.72 411.395141 
L 625.968 409.200286 
L 644.767271 414.064 
L 639.054435 422.688 
L 657.216 425.854767 
L 688.464 425.85498 
L 719.712 425.962942 
L 738.33404 431.312 
L 739.37565 439.936 
z
M 542.407221 396.816 
L 563.472 395.230239 
L 569.218334 396.816 
L 563.472 398.996546 
z
" clip-path="url(#p28e4282be9)" style="fill: #4d26bf"/>
   </g>
   <g id="PathCollection_4">
    <path d="M 750.96 443.35803 
L 750.96 442.491034 
L 739.37565 439.936 
L 738.33404 431.312 
L 719.712 425.962942 
L 688.464 425.85498 
L 657.216 425.854767 
L 639.054435 422.688 
L 644.767271 414.064 
L 625.968 409.200286 
L 594.72 411.395141 
L 563.472 407.502246 
L 532.224 407.42267 
L 518.885295 405.44 
L 529.44659 396.816 
L 500.976 391.731561 
L 482.804255 388.192 
L 480.203952 379.568 
L 469.728 376.899599 
L 438.48 377.394203 
L 419.776239 370.944 
L 418.443217 362.32 
L 407.232 358.38224 
L 375.984 354.919309 
L 372.105369 353.696 
L 371.940285 345.072 
L 357.281487 336.448 
L 344.825905 327.824 
L 344.736 327.790919 
L 333.74658 319.2 
L 329.165599 310.576 
L 313.488 306.249208 
L 305.410995 301.952 
L 307.265677 293.328 
L 282.24 285.106034 
L 280.849494 284.704 
L 282.24 283.766025 
L 296.984552 276.08 
L 282.24 271.756401 
L 273.642513 267.456 
L 273.642513 258.832 
L 272.219818 250.208 
L 270.549857 241.584 
L 250.992 233.487637 
L 249.601494 232.96 
L 246.018595 224.336 
L 244.07323 215.712 
L 244.072328 207.088 
L 241.639495 198.464 
L 241.639495 189.84 
L 241.639495 181.216 
L 241.639495 172.592 
L 240.600328 163.968 
L 240.201064 155.344 
L 232.288239 146.72 
L 232.286991 138.096 
L 219.744 134.634083 
L 210.392226 129.472 
L 211.956298 120.848 
L 211.146513 112.224 
L 211.146513 103.6 
L 210.391495 94.976 
L 210.391495 86.352 
L 210.391495 77.728 
L 210.391495 69.104 
L 210.391495 60.48 
L 207.263568 60.48 
L 207.263568 69.104 
L 207.263568 77.728 
L 207.263568 86.352 
L 207.263568 94.976 
L 207.910725 103.6 
L 207.910725 112.224 
L 208.604827 120.848 
L 207.264194 129.472 
L 219.744 136.360725 
L 226.031135 138.096 
L 226.032801 146.72 
L 236.592055 155.344 
L 237.124853 163.968 
L 238.511568 172.592 
L 238.511568 181.216 
L 238.511568 189.84 
L 238.511568 198.464 
L 240.596853 207.088 
L 240.597626 215.712 
L 242.265081 224.336 
L 245.336138 232.96 
L 250.992 235.106154 
L 266.64011 241.584 
L 268.868586 250.208 
L 270.406725 258.832 
L 270.406725 267.456 
L 282.24 273.374918 
L 291.465004 276.08 
L 282.24 280.888801 
L 276.584138 284.704 
L 282.24 286.339267 
L 303.512013 293.328 
L 301.93552 301.952 
L 313.488 308.098264 
L 322.46577 310.576 
L 328.227033 319.2 
L 340.301367 327.824 
L 344.736 332.107225 
L 351.026466 336.448 
L 367.859846 345.072 
L 368.195459 353.696 
L 375.984 356.152484 
L 407.232 360.735952 
L 411.741952 362.32 
L 413.520801 370.944 
L 438.48 379.551461 
L 469.728 378.891439 
L 472.384132 379.568 
L 474.985087 388.192 
L 500.976 393.254608 
L 520.918205 396.816 
L 512.18355 405.44 
L 532.224 408.41882 
L 563.472 408.538203 
L 594.72 413.386827 
L 625.968 410.819006 
L 638.51058 414.064 
L 631.238527 422.688 
L 657.216 427.217599 
L 688.464 427.218099 
L 719.712 427.195823 
L 734.041928 431.312 
L 735.444755 439.936 
z
" clip-path="url(#p28e4282be9)" style="fill: #89308d"/>
    <path d="M 563.472 398.996546 
L 569.218334 396.816 
L 563.472 395.230239 
L 542.407221 396.816 
z
" clip-path="url(#p28e4282be9)" style="fill: #89308d"/>
   </g>
   <g id="PathCollection_5">
    <path d="M 750.96 444.225025 
L 750.96 443.35803 
L 735.444755 439.936 
L 734.041928 431.312 
L 719.712 427.195823 
L 688.464 427.218099 
L 657.216 427.217599 
L 631.238527 422.688 
L 638.51058 414.064 
L 625.968 410.819006 
L 594.72 413.386827 
L 563.472 408.538203 
L 532.224 408.41882 
L 512.18355 405.44 
L 520.918205 396.816 
L 500.976 393.254608 
L 474.985087 388.192 
L 472.384132 379.568 
L 469.728 378.891439 
L 438.48 379.551461 
L 413.520801 370.944 
L 411.741952 362.32 
L 407.232 360.735952 
L 375.984 356.152484 
L 368.195459 353.696 
L 367.859846 345.072 
L 351.026466 336.448 
L 344.736 332.107225 
L 340.301367 327.824 
L 328.227033 319.2 
L 322.46577 310.576 
L 313.488 308.098264 
L 301.93552 301.952 
L 303.512013 293.328 
L 282.24 286.339267 
L 276.584138 284.704 
L 282.24 280.888801 
L 291.465004 276.08 
L 282.24 273.374918 
L 270.406725 267.456 
L 270.406725 258.832 
L 268.868586 250.208 
L 266.64011 241.584 
L 250.992 235.106154 
L 245.336138 232.96 
L 242.265081 224.336 
L 240.597626 215.712 
L 240.596853 207.088 
L 238.511568 198.464 
L 238.511568 189.84 
L 238.511568 181.216 
L 238.511568 172.592 
L 237.124853 163.968 
L 236.592055 155.344 
L 226.032801 146.72 
L 226.031135 138.096 
L 219.744 136.360725 
L 207.264194 129.472 
L 208.604827 120.848 
L 207.910725 112.224 
L 207.910725 103.6 
L 207.263568 94.976 
L 207.263568 86.352 
L 207.263568 77.728 
L 207.263568 69.104 
L 207.263568 60.48 
L 204.13564 60.48 
L 204.13564 69.104 
L 204.13564 77.728 
L 204.13564 86.352 
L 204.13564 94.976 
L 204.674938 103.6 
L 204.674938 112.224 
L 205.253356 120.848 
L 204.136162 129.472 
L 219.744 138.087367 
L 219.775279 138.096 
L 219.777362 146.72 
L 232.983047 155.344 
L 233.649377 163.968 
L 235.38364 172.592 
L 235.38364 181.216 
L 235.38364 189.84 
L 235.38364 198.464 
L 237.121377 207.088 
L 237.122022 215.712 
L 238.511568 224.336 
L 241.070781 232.96 
L 250.992 236.724671 
L 262.730363 241.584 
L 265.517355 250.208 
L 267.170938 258.832 
L 267.170938 267.456 
L 282.24 274.993435 
L 285.945456 276.08 
L 282.24 278.011577 
L 272.318781 284.704 
L 282.24 287.572501 
L 299.758349 293.328 
L 298.460044 301.952 
L 313.488 309.947321 
L 315.765942 310.576 
L 322.707485 319.2 
L 335.832473 327.824 
L 344.736 336.423541 
L 344.771445 336.448 
L 363.779408 345.072 
L 364.28555 353.696 
L 375.984 357.385658 
L 404.871254 362.32 
L 407.232 370.805601 
L 407.265362 370.944 
L 433.305316 379.568 
L 433.299516 388.192 
L 438.48 389.621739 
L 469.728 388.757763 
L 500.976 394.777655 
L 512.389821 396.816 
L 505.481806 405.44 
L 532.224 409.414969 
L 563.472 409.574161 
L 590.590308 414.064 
L 594.72 416.505802 
L 607.109075 414.064 
L 625.968 412.437726 
L 632.253889 414.064 
L 625.968 420.576838 
L 620.871289 422.688 
L 625.968 423.215361 
L 657.216 428.580431 
L 688.464 428.581218 
L 719.712 428.428703 
L 729.749817 431.312 
L 731.513859 439.936 
z
" clip-path="url(#p28e4282be9)" style="fill: #d73b49"/>
   </g>
   <g id="PathCollection_6">
    <path d="M 750.96 445.09202 
L 750.96 444.225025 
L 731.513859 439.936 
L 729.749817 431.312 
L 719.712 428.428703 
L 688.464 428.581218 
L 657.216 428.580431 
L 625.968 423.215361 
L 620.871289 422.688 
L 625.968 420.576838 
L 632.253889 414.064 
L 625.968 412.437726 
L 607.109075 414.064 
L 594.72 416.505802 
L 590.590308 414.064 
L 563.472 409.574161 
L 532.224 409.414969 
L 505.481806 405.44 
L 512.389821 396.816 
L 500.976 394.777655 
L 469.728 388.757763 
L 438.48 389.621739 
L 433.299516 388.192 
L 433.305316 379.568 
L 407.265362 370.944 
L 407.232 370.805601 
L 404.871254 362.32 
L 375.984 357.385658 
L 364.28555 353.696 
L 363.779408 345.072 
L 344.771445 336.448 
L 344.736 336.423541 
L 335.832473 327.824 
L 322.707485 319.2 
L 315.765942 310.576 
L 313.488 309.947321 
L 298.460044 301.952 
L 299.758349 293.328 
L 282.24 287.572501 
L 272.318781 284.704 
L 282.24 278.011577 
L 285.945456 276.08 
L 282.24 274.993435 
L 267.170938 267.456 
L 267.170938 258.832 
L 265.517355 250.208 
L 262.730363 241.584 
L 250.992 236.724671 
L 241.070781 232.96 
L 238.511568 224.336 
L 237.122022 215.712 
L 237.121377 207.088 
L 235.38364 198.464 
L 235.38364 189.84 
L 235.38364 181.216 
L 235.38364 172.592 
L 233.649377 163.968 
L 232.983047 155.344 
L 219.777362 146.72 
L 219.775279 138.096 
L 219.744 138.087367 
L 204.136162 129.472 
L 205.253356 120.848 
L 204.674938 112.224 
L 204.674938 103.6 
L 204.13564 94.976 
L 204.13564 86.352 
L 204.13564 77.728 
L 204.13564 69.104 
L 204.13564 60.48 
L 201.007712 60.48 
L 201.007712 69.104 
L 201.007712 77.728 
L 201.007712 86.352 
L 201.007712 94.976 
L 201.43915 103.6 
L 201.43915 112.224 
L 201.901885 120.848 
L 201.008129 129.472 
L 213.519423 138.096 
L 213.521093 146.72 
L 219.744 149.061798 
L 229.374038 155.344 
L 230.173902 163.968 
L 232.255712 172.592 
L 232.255712 181.216 
L 232.255712 189.84 
L 232.255712 198.464 
L 233.645902 207.088 
L 233.646417 215.712 
L 234.758054 224.336 
L 236.805425 232.96 
L 250.992 238.343189 
L 258.820616 241.584 
L 262.166123 250.208 
L 263.93515 258.832 
L 263.93515 267.456 
L 279.867404 276.08 
L 268.053425 284.704 
L 282.24 288.805734 
L 296.004685 293.328 
L 294.984569 301.952 
L 309.062318 310.576 
L 313.488 314.854507 
L 317.187937 319.2 
L 331.363578 327.824 
L 336.252084 336.448 
L 344.736 338.28763 
L 359.698969 345.072 
L 360.37564 353.696 
L 375.984 358.618832 
L 397.651847 362.32 
L 398.746785 370.944 
L 407.232 372.661433 
L 428.090653 379.568 
L 428.086013 388.192 
L 438.48 391.060592 
L 469.728 390.484405 
L 500.976 396.300702 
L 503.861437 396.816 
L 500.976 401.197061 
L 498.610077 405.44 
L 500.976 406.092961 
L 532.224 410.411119 
L 563.472 410.610118 
L 584.3332 414.064 
L 594.72 420.205502 
L 605.221206 422.688 
L 625.968 424.834689 
L 657.216 429.943263 
L 688.464 429.944337 
L 719.712 429.661584 
L 725.457706 431.312 
L 727.582963 439.936 
z
M 625.8804 414.064 
L 625.968 414.056446 
L 625.997198 414.064 
L 625.968 414.094252 
z
" clip-path="url(#p28e4282be9)" style="fill: #f55917"/>
   </g>
   <g id="PathCollection_7">
    <path d="M 750.96 445.959015 
L 750.96 445.09202 
L 727.582963 439.936 
L 725.457706 431.312 
L 719.712 429.661584 
L 688.464 429.944337 
L 657.216 429.943263 
L 625.968 424.834689 
L 605.221206 422.688 
L 594.72 420.205502 
L 584.3332 414.064 
L 563.472 410.610118 
L 532.224 410.411119 
L 500.976 406.092961 
L 498.610077 405.44 
L 500.976 401.197061 
L 503.861437 396.816 
L 500.976 396.300702 
L 469.728 390.484405 
L 438.48 391.060592 
L 428.086013 388.192 
L 428.090653 379.568 
L 407.232 372.661433 
L 398.746785 370.944 
L 397.651847 362.32 
L 375.984 358.618832 
L 360.37564 353.696 
L 359.698969 345.072 
L 344.736 338.28763 
L 336.252084 336.448 
L 331.363578 327.824 
L 317.187937 319.2 
L 313.488 314.854507 
L 309.062318 310.576 
L 294.984569 301.952 
L 296.004685 293.328 
L 282.24 288.805734 
L 268.053425 284.704 
L 279.867404 276.08 
L 263.93515 267.456 
L 263.93515 258.832 
L 262.166123 250.208 
L 258.820616 241.584 
L 250.992 238.343189 
L 236.805425 232.96 
L 234.758054 224.336 
L 233.646417 215.712 
L 233.645902 207.088 
L 232.255712 198.464 
L 232.255712 189.84 
L 232.255712 181.216 
L 232.255712 172.592 
L 230.173902 163.968 
L 229.374038 155.344 
L 219.744 149.061798 
L 213.521093 146.72 
L 213.519423 138.096 
L 201.008129 129.472 
L 201.901885 120.848 
L 201.43915 112.224 
L 201.43915 103.6 
L 201.007712 94.976 
L 201.007712 86.352 
L 201.007712 77.728 
L 201.007712 69.104 
L 201.007712 60.48 
L 197.879784 60.48 
L 197.879784 69.104 
L 197.879784 77.728 
L 197.879784 86.352 
L 197.879784 94.976 
L 198.203363 103.6 
L 198.203363 112.224 
L 198.550413 120.848 
L 197.880097 129.472 
L 207.263568 138.096 
L 207.26482 146.72 
L 219.744 151.416152 
L 225.765029 155.344 
L 226.698426 163.968 
L 229.127784 172.592 
L 229.127784 181.216 
L 229.127784 189.84 
L 229.127784 198.464 
L 230.170426 207.088 
L 230.170813 215.712 
L 231.004541 224.336 
L 232.540069 232.96 
L 250.992 239.961706 
L 254.91087 241.584 
L 258.814892 250.208 
L 260.699363 258.832 
L 260.699363 267.456 
L 272.648553 276.08 
L 263.788069 284.704 
L 282.24 290.038967 
L 292.251021 293.328 
L 291.509093 301.952 
L 302.356738 310.576 
L 310.39417 319.2 
L 313.488 320.053853 
L 326.894684 327.824 
L 327.719819 336.448 
L 344.736 340.137745 
L 355.61853 345.072 
L 356.46573 353.696 
L 375.984 359.852007 
L 390.43244 362.32 
L 390.216072 370.944 
L 407.232 374.388075 
L 422.87599 379.568 
L 422.872509 388.192 
L 438.48 392.499444 
L 469.728 392.211046 
L 494.764576 396.816 
L 491.389557 405.44 
L 500.976 408.085721 
L 532.224 411.407269 
L 563.472 411.646075 
L 578.076091 414.064 
L 590.85947 422.688 
L 594.72 423.635028 
L 625.968 426.454017 
L 657.216 431.306094 
L 688.464 431.307456 
L 719.712 430.894464 
L 721.165595 431.312 
L 723.652068 439.936 
z
" clip-path="url(#p28e4282be9)" style="fill: #e68d05"/>
    <path d="M 625.968 414.094252 
L 625.997198 414.064 
L 625.968 414.056446 
L 625.8804 414.064 
z
" clip-path="url(#p28e4282be9)" style="fill: #e68d05"/>
   </g>
   <g id="PathCollection_8">
    <path d="M 657.216 442.803631 
L 688.464 442.804912 
L 719.639039 439.936 
L 719.712 439.90568 
L 719.721172 439.936 
L 750.96 446.82601 
L 750.96 445.959015 
L 723.652068 439.936 
L 721.165595 431.312 
L 719.712 430.894464 
L 688.464 431.307456 
L 657.216 431.306094 
L 625.968 426.454017 
L 594.72 423.635028 
L 590.85947 422.688 
L 578.076091 414.064 
L 563.472 411.646075 
L 532.224 411.407269 
L 500.976 408.085721 
L 491.389557 405.44 
L 494.764576 396.816 
L 469.728 392.211046 
L 438.48 392.499444 
L 422.872509 388.192 
L 422.87599 379.568 
L 407.232 374.388075 
L 390.216072 370.944 
L 390.43244 362.32 
L 375.984 359.852007 
L 356.46573 353.696 
L 355.61853 345.072 
L 344.736 340.137745 
L 327.719819 336.448 
L 326.894684 327.824 
L 313.488 320.053853 
L 310.39417 319.2 
L 302.356738 310.576 
L 291.509093 301.952 
L 292.251021 293.328 
L 282.24 290.038967 
L 263.788069 284.704 
L 272.648553 276.08 
L 260.699363 267.456 
L 260.699363 258.832 
L 258.814892 250.208 
L 254.91087 241.584 
L 250.992 239.961706 
L 232.540069 232.96 
L 231.004541 224.336 
L 230.170813 215.712 
L 230.170426 207.088 
L 229.127784 198.464 
L 229.127784 189.84 
L 229.127784 181.216 
L 229.127784 172.592 
L 226.698426 163.968 
L 225.765029 155.344 
L 219.744 151.416152 
L 207.26482 146.72 
L 207.263568 138.096 
L 197.880097 129.472 
L 198.550413 120.848 
L 198.203363 112.224 
L 198.203363 103.6 
L 197.879784 94.976 
L 197.879784 86.352 
L 197.879784 77.728 
L 197.879784 69.104 
L 197.879784 60.48 
L 194.751856 60.48 
L 194.751856 69.104 
L 194.751856 77.728 
L 194.751856 86.352 
L 194.751856 94.976 
L 194.967575 103.6 
L 194.967575 112.224 
L 195.198942 120.848 
L 194.752065 129.472 
L 201.007712 138.096 
L 201.008547 146.72 
L 219.744 153.770507 
L 222.156021 155.344 
L 223.222951 163.968 
L 225.999856 172.592 
L 225.999856 181.216 
L 225.999856 189.84 
L 225.999856 198.464 
L 226.694951 207.088 
L 226.695209 215.712 
L 227.251027 224.336 
L 228.274713 232.96 
L 250.992 241.580223 
L 251.001123 241.584 
L 255.46366 250.208 
L 257.463575 258.832 
L 257.463575 267.456 
L 265.429702 276.08 
L 259.522713 284.704 
L 282.24 291.2722 
L 288.497358 293.328 
L 288.033618 301.952 
L 295.651159 310.576 
L 301.009446 319.2 
L 313.488 322.643902 
L 322.425789 327.824 
L 319.187553 336.448 
L 344.736 341.987859 
L 351.538091 345.072 
L 352.55582 353.696 
L 375.984 361.085181 
L 383.213033 362.32 
L 381.68536 370.944 
L 407.232 376.114716 
L 417.661326 379.568 
L 417.659006 388.192 
L 438.48 393.938296 
L 469.728 393.937688 
L 485.377033 396.816 
L 484.169038 405.44 
L 500.976 410.07848 
L 532.224 412.403418 
L 563.472 412.682033 
L 571.818983 414.064 
L 579.125335 422.688 
L 594.72 426.513533 
L 625.968 428.073344 
L 646.830134 431.312 
L 646.825492 439.936 
z
" clip-path="url(#p28e4282be9)" style="fill: #e6c01c"/>
   </g>
   <g id="PathCollection_9">
    <path d="M 657.216 445.681816 
L 688.464 445.682456 
L 719.712 444.242963 
L 750.96 447.693005 
L 750.96 446.82601 
L 719.721172 439.936 
L 719.712 439.90568 
L 719.639039 439.936 
L 688.464 442.804912 
L 657.216 442.803631 
L 646.825492 439.936 
L 646.830134 431.312 
L 625.968 428.073344 
L 594.72 426.513533 
L 579.125335 422.688 
L 571.818983 414.064 
L 563.472 412.682033 
L 532.224 412.403418 
L 500.976 410.07848 
L 484.169038 405.44 
L 485.377033 396.816 
L 469.728 393.937688 
L 438.48 393.938296 
L 417.659006 388.192 
L 417.661326 379.568 
L 407.232 376.114716 
L 381.68536 370.944 
L 383.213033 362.32 
L 375.984 361.085181 
L 352.55582 353.696 
L 351.538091 345.072 
L 344.736 341.987859 
L 319.187553 336.448 
L 322.425789 327.824 
L 313.488 322.643902 
L 301.009446 319.2 
L 295.651159 310.576 
L 288.033618 301.952 
L 288.497358 293.328 
L 282.24 291.2722 
L 259.522713 284.704 
L 265.429702 276.08 
L 257.463575 267.456 
L 257.463575 258.832 
L 255.46366 250.208 
L 251.001123 241.584 
L 250.992 241.580223 
L 228.274713 232.96 
L 227.251027 224.336 
L 226.695209 215.712 
L 226.694951 207.088 
L 225.999856 198.464 
L 225.999856 189.84 
L 225.999856 181.216 
L 225.999856 172.592 
L 223.222951 163.968 
L 222.156021 155.344 
L 219.744 153.770507 
L 201.008547 146.72 
L 201.007712 138.096 
L 194.752065 129.472 
L 195.198942 120.848 
L 194.967575 112.224 
L 194.967575 103.6 
L 194.751856 94.976 
L 194.751856 86.352 
L 194.751856 77.728 
L 194.751856 69.104 
L 194.751856 60.48 
L 191.623928 60.48 
L 191.623928 69.104 
L 191.623928 77.728 
L 191.623928 86.352 
L 191.623928 94.976 
L 191.731788 103.6 
L 191.731788 112.224 
L 191.847471 120.848 
L 191.624032 129.472 
L 194.751856 138.096 
L 194.752273 146.72 
L 211.961332 155.344 
L 219.744 163.942076 
L 219.747475 163.968 
L 222.871928 172.592 
L 222.871928 181.216 
L 222.871928 189.84 
L 222.871928 198.464 
L 223.219475 207.088 
L 223.219604 215.712 
L 223.497514 224.336 
L 224.009356 232.96 
L 235.386249 241.584 
L 250.992 248.043367 
L 252.112428 250.208 
L 254.227788 258.832 
L 254.227788 267.456 
L 258.210851 276.08 
L 255.257356 284.704 
L 282.24 292.505433 
L 284.743694 293.328 
L 284.558142 301.952 
L 288.945579 310.576 
L 291.624723 319.2 
L 313.488 325.233951 
L 317.956895 327.824 
L 313.488 334.298474 
L 305.699459 336.448 
L 313.488 338.597526 
L 344.736 343.837974 
L 347.457653 345.072 
L 348.64591 353.696 
L 375.984 362.318356 
L 375.993626 362.32 
L 375.984 362.354531 
L 368.201332 370.944 
L 375.984 373.091905 
L 407.232 377.841358 
L 412.446663 379.568 
L 412.445503 388.192 
L 438.48 395.377148 
L 469.728 395.66433 
L 475.989491 396.816 
L 476.948519 405.44 
L 500.976 412.07124 
L 532.224 413.399568 
L 563.472 413.71799 
L 565.561874 414.064 
L 567.391201 422.688 
L 594.72 429.392037 
L 625.968 429.692672 
L 636.399067 431.312 
L 636.396746 439.936 
z
" clip-path="url(#p28e4282be9)" style="fill: #e6de6c"/>
    <path d="M 532.224 424.837526 
L 547.801081 422.688 
L 532.224 419.821966 
L 524.435459 422.688 
z
" clip-path="url(#p28e4282be9)" style="fill: #e6de6c"/>
   </g>
   <g id="PathCollection_10">
    <path d="M 157.248 448.56 
L 188.496 448.56 
L 219.744 448.56 
L 250.992 448.56 
L 282.24 448.56 
L 313.488 448.56 
L 344.736 448.56 
L 375.984 448.56 
L 407.232 448.56 
L 438.48 448.56 
L 469.728 448.56 
L 500.976 448.56 
L 532.224 448.56 
L 563.472 448.56 
L 594.72 448.56 
L 625.968 448.56 
L 657.216 448.56 
L 688.464 448.56 
L 719.712 448.56 
L 750.96 448.56 
L 750.96 447.693005 
L 719.712 444.242963 
L 688.464 445.682456 
L 657.216 445.681816 
L 636.396746 439.936 
L 636.399067 431.312 
L 625.968 429.692672 
L 594.72 429.392037 
L 567.391201 422.688 
L 565.561874 414.064 
L 563.472 413.71799 
L 532.224 413.399568 
L 500.976 412.07124 
L 476.948519 405.44 
L 475.989491 396.816 
L 469.728 395.66433 
L 438.48 395.377148 
L 412.445503 388.192 
L 412.446663 379.568 
L 407.232 377.841358 
L 375.984 373.091905 
L 368.201332 370.944 
L 375.984 362.354531 
L 375.993626 362.32 
L 375.984 362.318356 
L 348.64591 353.696 
L 347.457653 345.072 
L 344.736 343.837974 
L 313.488 338.597526 
L 305.699459 336.448 
L 313.488 334.298474 
L 317.956895 327.824 
L 313.488 325.233951 
L 291.624723 319.2 
L 288.945579 310.576 
L 284.558142 301.952 
L 284.743694 293.328 
L 282.24 292.505433 
L 255.257356 284.704 
L 258.210851 276.08 
L 254.227788 267.456 
L 254.227788 258.832 
L 252.112428 250.208 
L 250.992 248.043367 
L 235.386249 241.584 
L 224.009356 232.96 
L 223.497514 224.336 
L 223.219604 215.712 
L 223.219475 207.088 
L 222.871928 198.464 
L 222.871928 189.84 
L 222.871928 181.216 
L 222.871928 172.592 
L 219.747475 163.968 
L 219.744 163.942076 
L 211.961332 155.344 
L 194.752273 146.72 
L 194.751856 138.096 
L 191.624032 129.472 
L 191.847471 120.848 
L 191.731788 112.224 
L 191.731788 103.6 
L 191.623928 94.976 
L 191.623928 86.352 
L 191.623928 77.728 
L 191.623928 69.104 
L 191.623928 60.48 
L 188.496 60.48 
L 157.248 60.48 
L 126 60.48 
L 126 69.104 
L 126 77.728 
L 126 86.352 
L 126 94.976 
L 126 103.6 
L 126 112.224 
L 126 120.848 
L 126 129.472 
L 126 138.096 
L 126 146.72 
L 126 155.344 
L 126 163.968 
L 126 172.592 
L 126 181.216 
L 126 189.84 
L 126 198.464 
L 126 207.088 
L 126 215.712 
L 126 224.336 
L 126 232.96 
L 126 241.584 
L 126 250.208 
L 126 258.832 
L 126 267.456 
L 126 276.08 
L 126 284.704 
L 126 293.328 
L 126 301.952 
L 126 310.576 
L 126 319.2 
L 126 327.824 
L 126 336.448 
L 126 345.072 
L 126 353.696 
L 126 362.32 
L 126 370.944 
L 126 379.568 
L 126 388.192 
L 126 396.816 
L 126 405.44 
L 126 414.064 
L 126 422.688 
L 126 431.312 
L 126 439.936 
L 126 448.56 
z
M 524.435459 422.688 
L 532.224 419.821966 
L 547.801081 422.688 
L 532.224 424.837526 
z
" clip-path="url(#p28e4282be9)" style="fill: #f5f5cf"/>
   </g>
   <g id="matplotlib.axis_1">
    <g id="xtick_1">
     <g id="line2d_1">
      <defs>
       <path id="m37cd607abf" d="M 0 0 
L 0 3.5 
" style="stroke: #000000; stroke-width: 0.8"/>
      </defs>
      <g>
       <use xlink:href="#m37cd607abf" x="126" y="448.56" style="stroke: #000000; stroke-width: 0.8"/>
      </g>
     </g>
     <g id="text_1">
      <!-- 0.000 -->
      <g transform="translate(111.685937 463.158437) scale(0.1 -0.1)">
       <defs>
        <path id="DejaVuSans-30" d="M 2034 4250 
Q 1547 4250 1301 3770 
Q 1056 3291 1056 2328 
Q 1056 1369 1301 889 
Q 1547 409 2034 409 
Q 2525 409 2770 889 
Q 3016 1369 3016 2328 
Q 3016 3291 2770 3770 
Q 2525 4250 2034 4250 
z
M 2034 4750 
Q 2819 4750 3233 4129 
Q 3647 3509 3647 2328 
Q 3647 1150 3233 529 
Q 2819 -91 2034 -91 
Q 1250 -91 836 529 
Q 422 1150 422 2328 
Q 422 3509 836 4129 
Q 1250 4750 2034 4750 
z
" transform="scale(0.015625)"/>
        <path id="DejaVuSans-2e" d="M 684 794 
L 1344 794 
L 1344 0 
L 684 0 
L 684 794 
z
" transform="scale(0.015625)"/>
       </defs>
       <use xlink:href="#DejaVuSans-30"/>
       <use xlink:href="#DejaVuSans-2e" x="63.623047"/>
       <use xlink:href="#DejaVuSans-30" x="95.410156"/>
       <use xlink:href="#DejaVuSans-30" x="159.033203"/>
       <use xlink:href="#DejaVuSans-30" x="222.65625"/>
      </g>
     </g>
    </g>
    <g id="xtick_2">
     <g id="line2d_2">
      <g>
       <use xlink:href="#m37cd607abf" x="204.12" y="448.56" style="stroke: #000000; stroke-width: 0.8"/>
      </g>
     </g>
     <g id="text_2">
      <!-- 0.025 -->
      <g transform="translate(189.805937 463.158437) scale(0.1 -0.1)">
       <defs>
        <path id="DejaVuSans-32" d="M 1228 531 
L 3431 531 
L 3431 0 
L 469 0 
L 469 531 
Q 828 903 1448 1529 
Q 2069 2156 2228 2338 
Q 2531 2678 2651 2914 
Q 2772 3150 2772 3378 
Q 2772 3750 2511 3984 
Q 2250 4219 1831 4219 
Q 1534 4219 1204 4116 
Q 875 4013 500 3803 
L 500 4441 
Q 881 4594 1212 4672 
Q 1544 4750 1819 4750 
Q 2544 4750 2975 4387 
Q 3406 4025 3406 3419 
Q 3406 3131 3298 2873 
Q 3191 2616 2906 2266 
Q 2828 2175 2409 1742 
Q 1991 1309 1228 531 
z
" transform="scale(0.015625)"/>
        <path id="DejaVuSans-35" d="M 691 4666 
L 3169 4666 
L 3169 4134 
L 1269 4134 
L 1269 2991 
Q 1406 3038 1543 3061 
Q 1681 3084 1819 3084 
Q 2600 3084 3056 2656 
Q 3513 2228 3513 1497 
Q 3513 744 3044 326 
Q 2575 -91 1722 -91 
Q 1428 -91 1123 -41 
Q 819 9 494 109 
L 494 744 
Q 775 591 1075 516 
Q 1375 441 1709 441 
Q 2250 441 2565 725 
Q 2881 1009 2881 1497 
Q 2881 1984 2565 2268 
Q 2250 2553 1709 2553 
Q 1456 2553 1204 2497 
Q 953 2441 691 2322 
L 691 4666 
z
" transform="scale(0.015625)"/>
       </defs>
       <use xlink:href="#DejaVuSans-30"/>
       <use xlink:href="#DejaVuSans-2e" x="63.623047"/>
       <use xlink:href="#DejaVuSans-30" x="95.410156"/>
       <use xlink:href="#DejaVuSans-32" x="159.033203"/>
       <use xlink:href="#DejaVuSans-35" x="222.65625"/>
      </g>
     </g>
    </g>
    <g id="xtick_3">
     <g id="line2d_3">
      <g>
       <use xlink:href="#m37cd607abf" x="282.24" y="448.56" style="stroke: #000000; stroke-width: 0.8"/>
      </g>
     </g>
     <g id="text_3">
      <!-- 0.050 -->
      <g transform="translate(267.925938 463.158437) scale(0.1 -0.1)">
       <use xlink:href="#DejaVuSans-30"/>
       <use xlink:href="#DejaVuSans-2e" x="63.623047"/>
       <use xlink:href="#DejaVuSans-30" x="95.410156"/>
       <use xlink:href="#DejaVuSans-35" x="159.033203"/>
       <use xlink:href="#DejaVuSans-30" x="222.65625"/>
      </g>
     </g>
    </g>
    <g id="xtick_4">
     <g id="line2d_4">
      <g>
       <use xlink:href="#m37cd607abf" x="360.36" y="448.56" style="stroke: #000000; stroke-width: 0.8"/>
      </g>
     </g>
     <g id="text_4">
      <!-- 0.075 -->
      <g transform="translate(346.045938 463.158437) scale(0.1 -0.1)">
       <defs>
        <path id="DejaVuSans-37" d="M 525 4666 
L 3525 4666 
L 3525 4397 
L 1831 0 
L 1172 0 
L 2766 4134 
L 525 4134 
L 525 4666 
z
" transform="scale(0.015625)"/>
       </defs>
       <use xlink:href="#DejaVuSans-30"/>
       <use xlink:href="#DejaVuSans-2e" x="63.623047"/>
       <use xlink:href="#DejaVuSans-30" x="95.410156"/>
       <use xlink:href="#DejaVuSans-37" x="159.033203"/>
       <use xlink:href="#DejaVuSans-35" x="222.65625"/>
      </g>
     </g>
    </g>
    <g id="xtick_5">
     <g id="line2d_5">
      <g>
       <use xlink:href="#m37cd607abf" x="438.48" y="448.56" style="stroke: #000000; stroke-width: 0.8"/>
      </g>
     </g>
     <g id="text_5">
      <!-- 0.100 -->
      <g transform="translate(424.165938 463.158437) scale(0.1 -0.1)">
       <defs>
        <path id="DejaVuSans-31" d="M 794 531 
L 1825 531 
L 1825 4091 
L 703 3866 
L 703 4441 
L 1819 4666 
L 2450 4666 
L 2450 531 
L 3481 531 
L 3481 0 
L 794 0 
L 794 531 
z
" transform="scale(0.015625)"/>
       </defs>
       <use xlink:href="#DejaVuSans-30"/>
       <use xlink:href="#DejaVuSans-2e" x="63.623047"/>
       <use xlink:href="#DejaVuSans-31" x="95.410156"/>
       <use xlink:href="#DejaVuSans-30" x="159.033203"/>
       <use xlink:href="#DejaVuSans-30" x="222.65625"/>
      </g>
     </g>
    </g>
    <g id="xtick_6">
     <g id="line2d_6">
      <g>
       <use xlink:href="#m37cd607abf" x="516.6" y="448.56" style="stroke: #000000; stroke-width: 0.8"/>
      </g>
     </g>
     <g id="text_6">
      <!-- 0.125 -->
      <g transform="translate(502.285938 463.158437) scale(0.1 -0.1)">
       <use xlink:href="#DejaVuSans-30"/>
       <use xlink:href="#DejaVuSans-2e" x="63.623047"/>
       <use xlink:href="#DejaVuSans-31" x="95.410156"/>
       <use xlink:href="#DejaVuSans-32" x="159.033203"/>
       <use xlink:href="#DejaVuSans-35" x="222.65625"/>
      </g>
     </g>
    </g>
    <g id="xtick_7">
     <g id="line2d_7">
      <g>
       <use xlink:href="#m37cd607abf" x="594.72" y="448.56" style="stroke: #000000; stroke-width: 0.8"/>
      </g>
     </g>
     <g id="text_7">
      <!-- 0.150 -->
      <g transform="translate(580.405938 463.158437) scale(0.1 -0.1)">
       <use xlink:href="#DejaVuSans-30"/>
       <use xlink:href="#DejaVuSans-2e" x="63.623047"/>
       <use xlink:href="#DejaVuSans-31" x="95.410156"/>
       <use xlink:href="#DejaVuSans-35" x="159.033203"/>
       <use xlink:href="#DejaVuSans-30" x="222.65625"/>
      </g>
     </g>
    </g>
    <g id="xtick_8">
     <g id="line2d_8">
      <g>
       <use xlink:href="#m37cd607abf" x="672.84" y="448.56" style="stroke: #000000; stroke-width: 0.8"/>
      </g>
     </g>
     <g id="text_8">
      <!-- 0.175 -->
      <g transform="translate(658.525938 463.158437) scale(0.1 -0.1)">
       <use xlink:href="#DejaVuSans-30"/>
       <use xlink:href="#DejaVuSans-2e" x="63.623047"/>
       <use xlink:href="#DejaVuSans-31" x="95.410156"/>
       <use xlink:href="#DejaVuSans-37" x="159.033203"/>
       <use xlink:href="#DejaVuSans-35" x="222.65625"/>
      </g>
     </g>
    </g>
    <g id="xtick_9">
     <g id="line2d_9">
      <g>
       <use xlink:href="#m37cd607abf" x="750.96" y="448.56" style="stroke: #000000; stroke-width: 0.8"/>
      </g>
     </g>
     <g id="text_9">
      <!-- 0.200 -->
      <g transform="translate(736.645938 463.158437) scale(0.1 -0.1)">
       <use xlink:href="#DejaVuSans-30"/>
       <use xlink:href="#DejaVuSans-2e" x="63.623047"/>
       <use xlink:href="#DejaVuSans-32" x="95.410156"/>
       <use xlink:href="#DejaVuSans-30" x="159.033203"/>
       <use xlink:href="#DejaVuSans-30" x="222.65625"/>
      </g>
     </g>
    </g>
    <g id="text_10">
     <!-- Infection threshold -->
     <g transform="translate(126 476.836563) scale(0.1 -0.1)">
      <defs>
       <path id="DejaVuSans-49" d="M 628 4666 
L 1259 4666 
L 1259 0 
L 628 0 
L 628 4666 
z
" transform="scale(0.015625)"/>
       <path id="DejaVuSans-6e" d="M 3513 2113 
L 3513 0 
L 2938 0 
L 2938 2094 
Q 2938 2591 2744 2837 
Q 2550 3084 2163 3084 
Q 1697 3084 1428 2787 
Q 1159 2491 1159 1978 
L 1159 0 
L 581 0 
L 581 3500 
L 1159 3500 
L 1159 2956 
Q 1366 3272 1645 3428 
Q 1925 3584 2291 3584 
Q 2894 3584 3203 3211 
Q 3513 2838 3513 2113 
z
" transform="scale(0.015625)"/>
       <path id="DejaVuSans-66" d="M 2375 4863 
L 2375 4384 
L 1825 4384 
Q 1516 4384 1395 4259 
Q 1275 4134 1275 3809 
L 1275 3500 
L 2222 3500 
L 2222 3053 
L 1275 3053 
L 1275 0 
L 697 0 
L 697 3053 
L 147 3053 
L 147 3500 
L 697 3500 
L 697 3744 
Q 697 4328 969 4595 
Q 1241 4863 1831 4863 
L 2375 4863 
z
" transform="scale(0.015625)"/>
       <path id="DejaVuSans-65" d="M 3597 1894 
L 3597 1613 
L 953 1613 
Q 991 1019 1311 708 
Q 1631 397 2203 397 
Q 2534 397 2845 478 
Q 3156 559 3463 722 
L 3463 178 
Q 3153 47 2828 -22 
Q 2503 -91 2169 -91 
Q 1331 -91 842 396 
Q 353 884 353 1716 
Q 353 2575 817 3079 
Q 1281 3584 2069 3584 
Q 2775 3584 3186 3129 
Q 3597 2675 3597 1894 
z
M 3022 2063 
Q 3016 2534 2758 2815 
Q 2500 3097 2075 3097 
Q 1594 3097 1305 2825 
Q 1016 2553 972 2059 
L 3022 2063 
z
" transform="scale(0.015625)"/>
       <path id="DejaVuSans-63" d="M 3122 3366 
L 3122 2828 
Q 2878 2963 2633 3030 
Q 2388 3097 2138 3097 
Q 1578 3097 1268 2742 
Q 959 2388 959 1747 
Q 959 1106 1268 751 
Q 1578 397 2138 397 
Q 2388 397 2633 464 
Q 2878 531 3122 666 
L 3122 134 
Q 2881 22 2623 -34 
Q 2366 -91 2075 -91 
Q 1284 -91 818 406 
Q 353 903 353 1747 
Q 353 2603 823 3093 
Q 1294 3584 2113 3584 
Q 2378 3584 2631 3529 
Q 2884 3475 3122 3366 
z
" transform="scale(0.015625)"/>
       <path id="DejaVuSans-74" d="M 1172 4494 
L 1172 3500 
L 2356 3500 
L 2356 3053 
L 1172 3053 
L 1172 1153 
Q 1172 725 1289 603 
Q 1406 481 1766 481 
L 2356 481 
L 2356 0 
L 1766 0 
Q 1100 0 847 248 
Q 594 497 594 1153 
L 594 3053 
L 172 3053 
L 172 3500 
L 594 3500 
L 594 4494 
L 1172 4494 
z
" transform="scale(0.015625)"/>
       <path id="DejaVuSans-69" d="M 603 3500 
L 1178 3500 
L 1178 0 
L 603 0 
L 603 3500 
z
M 603 4863 
L 1178 4863 
L 1178 4134 
L 603 4134 
L 603 4863 
z
" transform="scale(0.015625)"/>
       <path id="DejaVuSans-6f" d="M 1959 3097 
Q 1497 3097 1228 2736 
Q 959 2375 959 1747 
Q 959 1119 1226 758 
Q 1494 397 1959 397 
Q 2419 397 2687 759 
Q 2956 1122 2956 1747 
Q 2956 2369 2687 2733 
Q 2419 3097 1959 3097 
z
M 1959 3584 
Q 2709 3584 3137 3096 
Q 3566 2609 3566 1747 
Q 3566 888 3137 398 
Q 2709 -91 1959 -91 
Q 1206 -91 779 398 
Q 353 888 353 1747 
Q 353 2609 779 3096 
Q 1206 3584 1959 3584 
z
" transform="scale(0.015625)"/>
       <path id="DejaVuSans-20" transform="scale(0.015625)"/>
       <path id="DejaVuSans-68" d="M 3513 2113 
L 3513 0 
L 2938 0 
L 2938 2094 
Q 2938 2591 2744 2837 
Q 2550 3084 2163 3084 
Q 1697 3084 1428 2787 
Q 1159 2491 1159 1978 
L 1159 0 
L 581 0 
L 581 4863 
L 1159 4863 
L 1159 2956 
Q 1366 3272 1645 3428 
Q 1925 3584 2291 3584 
Q 2894 3584 3203 3211 
Q 3513 2838 3513 2113 
z
" transform="scale(0.015625)"/>
       <path id="DejaVuSans-72" d="M 2631 2963 
Q 2534 3019 2420 3045 
Q 2306 3072 2169 3072 
Q 1681 3072 1420 2755 
Q 1159 2438 1159 1844 
L 1159 0 
L 581 0 
L 581 3500 
L 1159 3500 
L 1159 2956 
Q 1341 3275 1631 3429 
Q 1922 3584 2338 3584 
Q 2397 3584 2469 3576 
Q 2541 3569 2628 3553 
L 2631 2963 
z
" transform="scale(0.015625)"/>
       <path id="DejaVuSans-73" d="M 2834 3397 
L 2834 2853 
Q 2591 2978 2328 3040 
Q 2066 3103 1784 3103 
Q 1356 3103 1142 2972 
Q 928 2841 928 2578 
Q 928 2378 1081 2264 
Q 1234 2150 1697 2047 
L 1894 2003 
Q 2506 1872 2764 1633 
Q 3022 1394 3022 966 
Q 3022 478 2636 193 
Q 2250 -91 1575 -91 
Q 1294 -91 989 -36 
Q 684 19 347 128 
L 347 722 
Q 666 556 975 473 
Q 1284 391 1588 391 
Q 1994 391 2212 530 
Q 2431 669 2431 922 
Q 2431 1156 2273 1281 
Q 2116 1406 1581 1522 
L 1381 1569 
Q 847 1681 609 1914 
Q 372 2147 372 2553 
Q 372 3047 722 3315 
Q 1072 3584 1716 3584 
Q 2034 3584 2315 3537 
Q 2597 3491 2834 3397 
z
" transform="scale(0.015625)"/>
       <path id="DejaVuSans-6c" d="M 603 4863 
L 1178 4863 
L 1178 0 
L 603 0 
L 603 4863 
z
" transform="scale(0.015625)"/>
       <path id="DejaVuSans-64" d="M 2906 2969 
L 2906 4863 
L 3481 4863 
L 3481 0 
L 2906 0 
L 2906 525 
Q 2725 213 2448 61 
Q 2172 -91 1784 -91 
Q 1150 -91 751 415 
Q 353 922 353 1747 
Q 353 2572 751 3078 
Q 1150 3584 1784 3584 
Q 2172 3584 2448 3432 
Q 2725 3281 2906 2969 
z
M 947 1747 
Q 947 1113 1208 752 
Q 1469 391 1925 391 
Q 2381 391 2643 752 
Q 2906 1113 2906 1747 
Q 2906 2381 2643 2742 
Q 2381 3103 1925 3103 
Q 1469 3103 1208 2742 
Q 947 2381 947 1747 
z
" transform="scale(0.015625)"/>
      </defs>
      <use xlink:href="#DejaVuSans-49"/>
      <use xlink:href="#DejaVuSans-6e" x="29.492188"/>
      <use xlink:href="#DejaVuSans-66" x="92.871094"/>
      <use xlink:href="#DejaVuSans-65" x="128.076172"/>
      <use xlink:href="#DejaVuSans-63" x="189.599609"/>
      <use xlink:href="#DejaVuSans-74" x="244.580078"/>
      <use xlink:href="#DejaVuSans-69" x="283.789062"/>
      <use xlink:href="#DejaVuSans-6f" x="311.572266"/>
      <use xlink:href="#DejaVuSans-6e" x="372.753906"/>
      <use xlink:href="#DejaVuSans-20" x="436.132812"/>
      <use xlink:href="#DejaVuSans-74" x="467.919922"/>
      <use xlink:href="#DejaVuSans-68" x="507.128906"/>
      <use xlink:href="#DejaVuSans-72" x="570.507812"/>
      <use xlink:href="#DejaVuSans-65" x="609.371094"/>
      <use xlink:href="#DejaVuSans-73" x="670.894531"/>
      <use xlink:href="#DejaVuSans-68" x="722.994141"/>
      <use xlink:href="#DejaVuSans-6f" x="786.373047"/>
      <use xlink:href="#DejaVuSans-6c" x="847.554688"/>
      <use xlink:href="#DejaVuSans-64" x="875.337891"/>
     </g>
    </g>
   </g>
   <g id="matplotlib.axis_2">
    <g id="ytick_1">
     <g id="line2d_10">
      <defs>
       <path id="m00c775fea5" d="M 0 0 
L -3.5 0 
" style="stroke: #000000; stroke-width: 0.8"/>
      </defs>
      <g>
       <use xlink:href="#m00c775fea5" x="126" y="448.56" style="stroke: #000000; stroke-width: 0.8"/>
      </g>
     </g>
     <g id="text_11">
      <!-- 5 -->
      <g transform="translate(112.6375 452.359219) scale(0.1 -0.1)">
       <use xlink:href="#DejaVuSans-35"/>
      </g>
     </g>
    </g>
    <g id="ytick_2">
     <g id="line2d_11">
      <g>
       <use xlink:href="#m00c775fea5" x="126" y="405.44" style="stroke: #000000; stroke-width: 0.8"/>
      </g>
     </g>
     <g id="text_12">
      <!-- 10 -->
      <g transform="translate(106.275 409.239219) scale(0.1 -0.1)">
       <use xlink:href="#DejaVuSans-31"/>
       <use xlink:href="#DejaVuSans-30" x="63.623047"/>
      </g>
     </g>
    </g>
    <g id="ytick_3">
     <g id="line2d_12">
      <g>
       <use xlink:href="#m00c775fea5" x="126" y="362.32" style="stroke: #000000; stroke-width: 0.8"/>
      </g>
     </g>
     <g id="text_13">
      <!-- 15 -->
      <g transform="translate(106.275 366.119219) scale(0.1 -0.1)">
       <use xlink:href="#DejaVuSans-31"/>
       <use xlink:href="#DejaVuSans-35" x="63.623047"/>
      </g>
     </g>
    </g>
    <g id="ytick_4">
     <g id="line2d_13">
      <g>
       <use xlink:href="#m00c775fea5" x="126" y="319.2" style="stroke: #000000; stroke-width: 0.8"/>
      </g>
     </g>
     <g id="text_14">
      <!-- 20 -->
      <g transform="translate(106.275 322.999219) scale(0.1 -0.1)">
       <use xlink:href="#DejaVuSans-32"/>
       <use xlink:href="#DejaVuSans-30" x="63.623047"/>
      </g>
     </g>
    </g>
    <g id="ytick_5">
     <g id="line2d_14">
      <g>
       <use xlink:href="#m00c775fea5" x="126" y="276.08" style="stroke: #000000; stroke-width: 0.8"/>
      </g>
     </g>
     <g id="text_15">
      <!-- 25 -->
      <g transform="translate(106.275 279.879219) scale(0.1 -0.1)">
       <use xlink:href="#DejaVuSans-32"/>
       <use xlink:href="#DejaVuSans-35" x="63.623047"/>
      </g>
     </g>
    </g>
    <g id="ytick_6">
     <g id="line2d_15">
      <g>
       <use xlink:href="#m00c775fea5" x="126" y="232.96" style="stroke: #000000; stroke-width: 0.8"/>
      </g>
     </g>
     <g id="text_16">
      <!-- 30 -->
      <g transform="translate(106.275 236.759219) scale(0.1 -0.1)">
       <defs>
        <path id="DejaVuSans-33" d="M 2597 2516 
Q 3050 2419 3304 2112 
Q 3559 1806 3559 1356 
Q 3559 666 3084 287 
Q 2609 -91 1734 -91 
Q 1441 -91 1130 -33 
Q 819 25 488 141 
L 488 750 
Q 750 597 1062 519 
Q 1375 441 1716 441 
Q 2309 441 2620 675 
Q 2931 909 2931 1356 
Q 2931 1769 2642 2001 
Q 2353 2234 1838 2234 
L 1294 2234 
L 1294 2753 
L 1863 2753 
Q 2328 2753 2575 2939 
Q 2822 3125 2822 3475 
Q 2822 3834 2567 4026 
Q 2313 4219 1838 4219 
Q 1578 4219 1281 4162 
Q 984 4106 628 3988 
L 628 4550 
Q 988 4650 1302 4700 
Q 1616 4750 1894 4750 
Q 2613 4750 3031 4423 
Q 3450 4097 3450 3541 
Q 3450 3153 3228 2886 
Q 3006 2619 2597 2516 
z
" transform="scale(0.015625)"/>
       </defs>
       <use xlink:href="#DejaVuSans-33"/>
       <use xlink:href="#DejaVuSans-30" x="63.623047"/>
      </g>
     </g>
    </g>
    <g id="ytick_7">
     <g id="line2d_16">
      <g>
       <use xlink:href="#m00c775fea5" x="126" y="189.84" style="stroke: #000000; stroke-width: 0.8"/>
      </g>
     </g>
     <g id="text_17">
      <!-- 35 -->
      <g transform="translate(106.275 193.639219) scale(0.1 -0.1)">
       <use xlink:href="#DejaVuSans-33"/>
       <use xlink:href="#DejaVuSans-35" x="63.623047"/>
      </g>
     </g>
    </g>
    <g id="ytick_8">
     <g id="line2d_17">
      <g>
       <use xlink:href="#m00c775fea5" x="126" y="146.72" style="stroke: #000000; stroke-width: 0.8"/>
      </g>
     </g>
     <g id="text_18">
      <!-- 40 -->
      <g transform="translate(106.275 150.519219) scale(0.1 -0.1)">
       <defs>
        <path id="DejaVuSans-34" d="M 2419 4116 
L 825 1625 
L 2419 1625 
L 2419 4116 
z
M 2253 4666 
L 3047 4666 
L 3047 1625 
L 3713 1625 
L 3713 1100 
L 3047 1100 
L 3047 0 
L 2419 0 
L 2419 1100 
L 313 1100 
L 313 1709 
L 2253 4666 
z
" transform="scale(0.015625)"/>
       </defs>
       <use xlink:href="#DejaVuSans-34"/>
       <use xlink:href="#DejaVuSans-30" x="63.623047"/>
      </g>
     </g>
    </g>
    <g id="ytick_9">
     <g id="line2d_18">
      <g>
       <use xlink:href="#m00c775fea5" x="126" y="103.6" style="stroke: #000000; stroke-width: 0.8"/>
      </g>
     </g>
     <g id="text_19">
      <!-- 45 -->
      <g transform="translate(106.275 107.399219) scale(0.1 -0.1)">
       <use xlink:href="#DejaVuSans-34"/>
       <use xlink:href="#DejaVuSans-35" x="63.623047"/>
      </g>
     </g>
    </g>
    <g id="ytick_10">
     <g id="line2d_19">
      <g>
       <use xlink:href="#m00c775fea5" x="126" y="60.48" style="stroke: #000000; stroke-width: 0.8"/>
      </g>
     </g>
     <g id="text_20">
      <!-- 50 -->
      <g transform="translate(106.275 64.279219) scale(0.1 -0.1)">
       <use xlink:href="#DejaVuSans-35"/>
       <use xlink:href="#DejaVuSans-30" x="63.623047"/>
      </g>
     </g>
    </g>
    <g id="text_21">
     <!-- k in SW Graph -->
     <g transform="translate(100.195312 448.56) rotate(-90) scale(0.1 -0.1)">
      <defs>
       <path id="DejaVuSans-6b" d="M 581 4863 
L 1159 4863 
L 1159 1991 
L 2875 3500 
L 3609 3500 
L 1753 1863 
L 3688 0 
L 2938 0 
L 1159 1709 
L 1159 0 
L 581 0 
L 581 4863 
z
" transform="scale(0.015625)"/>
       <path id="DejaVuSans-53" d="M 3425 4513 
L 3425 3897 
Q 3066 4069 2747 4153 
Q 2428 4238 2131 4238 
Q 1616 4238 1336 4038 
Q 1056 3838 1056 3469 
Q 1056 3159 1242 3001 
Q 1428 2844 1947 2747 
L 2328 2669 
Q 3034 2534 3370 2195 
Q 3706 1856 3706 1288 
Q 3706 609 3251 259 
Q 2797 -91 1919 -91 
Q 1588 -91 1214 -16 
Q 841 59 441 206 
L 441 856 
Q 825 641 1194 531 
Q 1563 422 1919 422 
Q 2459 422 2753 634 
Q 3047 847 3047 1241 
Q 3047 1584 2836 1778 
Q 2625 1972 2144 2069 
L 1759 2144 
Q 1053 2284 737 2584 
Q 422 2884 422 3419 
Q 422 4038 858 4394 
Q 1294 4750 2059 4750 
Q 2388 4750 2728 4690 
Q 3069 4631 3425 4513 
z
" transform="scale(0.015625)"/>
       <path id="DejaVuSans-57" d="M 213 4666 
L 850 4666 
L 1831 722 
L 2809 4666 
L 3519 4666 
L 4500 722 
L 5478 4666 
L 6119 4666 
L 4947 0 
L 4153 0 
L 3169 4050 
L 2175 0 
L 1381 0 
L 213 4666 
z
" transform="scale(0.015625)"/>
       <path id="DejaVuSans-47" d="M 3809 666 
L 3809 1919 
L 2778 1919 
L 2778 2438 
L 4434 2438 
L 4434 434 
Q 4069 175 3628 42 
Q 3188 -91 2688 -91 
Q 1594 -91 976 548 
Q 359 1188 359 2328 
Q 359 3472 976 4111 
Q 1594 4750 2688 4750 
Q 3144 4750 3555 4637 
Q 3966 4525 4313 4306 
L 4313 3634 
Q 3963 3931 3569 4081 
Q 3175 4231 2741 4231 
Q 1884 4231 1454 3753 
Q 1025 3275 1025 2328 
Q 1025 1384 1454 906 
Q 1884 428 2741 428 
Q 3075 428 3337 486 
Q 3600 544 3809 666 
z
" transform="scale(0.015625)"/>
       <path id="DejaVuSans-61" d="M 2194 1759 
Q 1497 1759 1228 1600 
Q 959 1441 959 1056 
Q 959 750 1161 570 
Q 1363 391 1709 391 
Q 2188 391 2477 730 
Q 2766 1069 2766 1631 
L 2766 1759 
L 2194 1759 
z
M 3341 1997 
L 3341 0 
L 2766 0 
L 2766 531 
Q 2569 213 2275 61 
Q 1981 -91 1556 -91 
Q 1019 -91 701 211 
Q 384 513 384 1019 
Q 384 1609 779 1909 
Q 1175 2209 1959 2209 
L 2766 2209 
L 2766 2266 
Q 2766 2663 2505 2880 
Q 2244 3097 1772 3097 
Q 1472 3097 1187 3025 
Q 903 2953 641 2809 
L 641 3341 
Q 956 3463 1253 3523 
Q 1550 3584 1831 3584 
Q 2591 3584 2966 3190 
Q 3341 2797 3341 1997 
z
" transform="scale(0.015625)"/>
       <path id="DejaVuSans-70" d="M 1159 525 
L 1159 -1331 
L 581 -1331 
L 581 3500 
L 1159 3500 
L 1159 2969 
Q 1341 3281 1617 3432 
Q 1894 3584 2278 3584 
Q 2916 3584 3314 3078 
Q 3713 2572 3713 1747 
Q 3713 922 3314 415 
Q 2916 -91 2278 -91 
Q 1894 -91 1617 61 
Q 1341 213 1159 525 
z
M 3116 1747 
Q 3116 2381 2855 2742 
Q 2594 3103 2138 3103 
Q 1681 3103 1420 2742 
Q 1159 2381 1159 1747 
Q 1159 1113 1420 752 
Q 1681 391 2138 391 
Q 2594 391 2855 752 
Q 3116 1113 3116 1747 
z
" transform="scale(0.015625)"/>
      </defs>
      <use xlink:href="#DejaVuSans-6b"/>
      <use xlink:href="#DejaVuSans-20" x="57.910156"/>
      <use xlink:href="#DejaVuSans-69" x="89.697266"/>
      <use xlink:href="#DejaVuSans-6e" x="117.480469"/>
      <use xlink:href="#DejaVuSans-20" x="180.859375"/>
      <use xlink:href="#DejaVuSans-53" x="212.646484"/>
      <use xlink:href="#DejaVuSans-57" x="276.123047"/>
      <use xlink:href="#DejaVuSans-20" x="375"/>
      <use xlink:href="#DejaVuSans-47" x="406.787109"/>
      <use xlink:href="#DejaVuSans-72" x="484.277344"/>
      <use xlink:href="#DejaVuSans-61" x="525.390625"/>
      <use xlink:href="#DejaVuSans-70" x="586.669922"/>
      <use xlink:href="#DejaVuSans-68" x="650.146484"/>
     </g>
    </g>
   </g>
   <g id="patch_3">
    <path d="M 126 448.56 
L 126 60.48 
" style="fill: none; stroke: #000000; stroke-width: 0.8; stroke-linejoin: miter; stroke-linecap: square"/>
   </g>
   <g id="patch_4">
    <path d="M 750.96 448.56 
L 750.96 60.48 
" style="fill: none; stroke: #000000; stroke-width: 0.8; stroke-linejoin: miter; stroke-linecap: square"/>
   </g>
   <g id="patch_5">
    <path d="M 126 448.56 
L 750.96 448.56 
" style="fill: none; stroke: #000000; stroke-width: 0.8; stroke-linejoin: miter; stroke-linecap: square"/>
   </g>
   <g id="patch_6">
    <path d="M 126 60.48 
L 750.96 60.48 
" style="fill: none; stroke: #000000; stroke-width: 0.8; stroke-linejoin: miter; stroke-linecap: square"/>
   </g>
   <g id="text_22">
    <!-- Infection trend -->
    <g transform="translate(394.4175 54.48) scale(0.12 -0.12)">
     <use xlink:href="#DejaVuSans-49"/>
     <use xlink:href="#DejaVuSans-6e" x="29.492188"/>
     <use xlink:href="#DejaVuSans-66" x="92.871094"/>
     <use xlink:href="#DejaVuSans-65" x="128.076172"/>
     <use xlink:href="#DejaVuSans-63" x="189.599609"/>
     <use xlink:href="#DejaVuSans-74" x="244.580078"/>
     <use xlink:href="#DejaVuSans-69" x="283.789062"/>
     <use xlink:href="#DejaVuSans-6f" x="311.572266"/>
     <use xlink:href="#DejaVuSans-6e" x="372.753906"/>
     <use xlink:href="#DejaVuSans-20" x="436.132812"/>
     <use xlink:href="#DejaVuSans-74" x="467.919922"/>
     <use xlink:href="#DejaVuSans-72" x="507.128906"/>
     <use xlink:href="#DejaVuSans-65" x="545.992188"/>
     <use xlink:href="#DejaVuSans-6e" x="607.515625"/>
     <use xlink:href="#DejaVuSans-64" x="670.894531"/>
    </g>
   </g>
  </g>
  <g id="axes_2">
   <g id="patch_7">
    <path d="M 790.02 448.56 
L 809.424 448.56 
L 809.424 60.48 
L 790.02 60.48 
z
" style="fill: #ffffff"/>
   </g>
   <g id="patch_8">
    <path clip-path="url(#p003be69a2e)" style="fill: #ffffff; stroke: #ffffff; stroke-width: 0.01; stroke-linejoin: miter"/>
   </g>
   <g id="QuadMesh_1">
    <path d="M 790.02 448.56 
L 809.424 448.56 
L 809.424 409.752 
L 790.02 409.752 
L 790.02 448.56 
" clip-path="url(#p003be69a2e)" style="fill: #0e0e30"/>
    <path d="M 790.02 409.752 
L 809.424 409.752 
L 809.424 370.944 
L 790.02 370.944 
L 790.02 409.752 
" clip-path="url(#p003be69a2e)" style="fill: #2e268c"/>
    <path d="M 790.02 370.944 
L 809.424 370.944 
L 809.424 332.136 
L 790.02 332.136 
L 790.02 370.944 
" clip-path="url(#p003be69a2e)" style="fill: #4d26bf"/>
    <path d="M 790.02 332.136 
L 809.424 332.136 
L 809.424 293.328 
L 790.02 293.328 
L 790.02 332.136 
" clip-path="url(#p003be69a2e)" style="fill: #89308d"/>
    <path d="M 790.02 293.328 
L 809.424 293.328 
L 809.424 254.52 
L 790.02 254.52 
L 790.02 293.328 
" clip-path="url(#p003be69a2e)" style="fill: #d73b49"/>
    <path d="M 790.02 254.52 
L 809.424 254.52 
L 809.424 215.712 
L 790.02 215.712 
L 790.02 254.52 
" clip-path="url(#p003be69a2e)" style="fill: #f55917"/>
    <path d="M 790.02 215.712 
L 809.424 215.712 
L 809.424 176.904 
L 790.02 176.904 
L 790.02 215.712 
" clip-path="url(#p003be69a2e)" style="fill: #e68d05"/>
    <path d="M 790.02 176.904 
L 809.424 176.904 
L 809.424 138.096 
L 790.02 138.096 
L 790.02 176.904 
" clip-path="url(#p003be69a2e)" style="fill: #e6c01c"/>
    <path d="M 790.02 138.096 
L 809.424 138.096 
L 809.424 99.288 
L 790.02 99.288 
L 790.02 138.096 
" clip-path="url(#p003be69a2e)" style="fill: #e6de6c"/>
    <path d="M 790.02 99.288 
L 809.424 99.288 
L 809.424 60.48 
L 790.02 60.48 
L 790.02 99.288 
" clip-path="url(#p003be69a2e)" style="fill: #f5f5cf"/>
   </g>
   <g id="matplotlib.axis_3"/>
   <g id="matplotlib.axis_4">
    <g id="ytick_11">
     <g id="line2d_20">
      <defs>
       <path id="m9259879441" d="M 0 0 
L 3.5 0 
" style="stroke: #000000; stroke-width: 0.8"/>
      </defs>
      <g>
       <use xlink:href="#m9259879441" x="809.424" y="448.56" style="stroke: #000000; stroke-width: 0.8"/>
      </g>
     </g>
     <g id="text_23">
      <!-- 0.0 -->
      <g transform="translate(816.424 452.359219) scale(0.1 -0.1)">
       <use xlink:href="#DejaVuSans-30"/>
       <use xlink:href="#DejaVuSans-2e" x="63.623047"/>
       <use xlink:href="#DejaVuSans-30" x="95.410156"/>
      </g>
     </g>
    </g>
    <g id="ytick_12">
     <g id="line2d_21">
      <g>
       <use xlink:href="#m9259879441" x="809.424" y="370.944" style="stroke: #000000; stroke-width: 0.8"/>
      </g>
     </g>
     <g id="text_24">
      <!-- 0.2 -->
      <g transform="translate(816.424 374.743219) scale(0.1 -0.1)">
       <use xlink:href="#DejaVuSans-30"/>
       <use xlink:href="#DejaVuSans-2e" x="63.623047"/>
       <use xlink:href="#DejaVuSans-32" x="95.410156"/>
      </g>
     </g>
    </g>
    <g id="ytick_13">
     <g id="line2d_22">
      <g>
       <use xlink:href="#m9259879441" x="809.424" y="293.328" style="stroke: #000000; stroke-width: 0.8"/>
      </g>
     </g>
     <g id="text_25">
      <!-- 0.4 -->
      <g transform="translate(816.424 297.127219) scale(0.1 -0.1)">
       <use xlink:href="#DejaVuSans-30"/>
       <use xlink:href="#DejaVuSans-2e" x="63.623047"/>
       <use xlink:href="#DejaVuSans-34" x="95.410156"/>
      </g>
     </g>
    </g>
    <g id="ytick_14">
     <g id="line2d_23">
      <g>
       <use xlink:href="#m9259879441" x="809.424" y="215.712" style="stroke: #000000; stroke-width: 0.8"/>
      </g>
     </g>
     <g id="text_26">
      <!-- 0.6 -->
      <g transform="translate(816.424 219.511219) scale(0.1 -0.1)">
       <defs>
        <path id="DejaVuSans-36" d="M 2113 2584 
Q 1688 2584 1439 2293 
Q 1191 2003 1191 1497 
Q 1191 994 1439 701 
Q 1688 409 2113 409 
Q 2538 409 2786 701 
Q 3034 994 3034 1497 
Q 3034 2003 2786 2293 
Q 2538 2584 2113 2584 
z
M 3366 4563 
L 3366 3988 
Q 3128 4100 2886 4159 
Q 2644 4219 2406 4219 
Q 1781 4219 1451 3797 
Q 1122 3375 1075 2522 
Q 1259 2794 1537 2939 
Q 1816 3084 2150 3084 
Q 2853 3084 3261 2657 
Q 3669 2231 3669 1497 
Q 3669 778 3244 343 
Q 2819 -91 2113 -91 
Q 1303 -91 875 529 
Q 447 1150 447 2328 
Q 447 3434 972 4092 
Q 1497 4750 2381 4750 
Q 2619 4750 2861 4703 
Q 3103 4656 3366 4563 
z
" transform="scale(0.015625)"/>
       </defs>
       <use xlink:href="#DejaVuSans-30"/>
       <use xlink:href="#DejaVuSans-2e" x="63.623047"/>
       <use xlink:href="#DejaVuSans-36" x="95.410156"/>
      </g>
     </g>
    </g>
    <g id="ytick_15">
     <g id="line2d_24">
      <g>
       <use xlink:href="#m9259879441" x="809.424" y="138.096" style="stroke: #000000; stroke-width: 0.8"/>
      </g>
     </g>
     <g id="text_27">
      <!-- 0.8 -->
      <g transform="translate(816.424 141.895219) scale(0.1 -0.1)">
       <defs>
        <path id="DejaVuSans-38" d="M 2034 2216 
Q 1584 2216 1326 1975 
Q 1069 1734 1069 1313 
Q 1069 891 1326 650 
Q 1584 409 2034 409 
Q 2484 409 2743 651 
Q 3003 894 3003 1313 
Q 3003 1734 2745 1975 
Q 2488 2216 2034 2216 
z
M 1403 2484 
Q 997 2584 770 2862 
Q 544 3141 544 3541 
Q 544 4100 942 4425 
Q 1341 4750 2034 4750 
Q 2731 4750 3128 4425 
Q 3525 4100 3525 3541 
Q 3525 3141 3298 2862 
Q 3072 2584 2669 2484 
Q 3125 2378 3379 2068 
Q 3634 1759 3634 1313 
Q 3634 634 3220 271 
Q 2806 -91 2034 -91 
Q 1263 -91 848 271 
Q 434 634 434 1313 
Q 434 1759 690 2068 
Q 947 2378 1403 2484 
z
M 1172 3481 
Q 1172 3119 1398 2916 
Q 1625 2713 2034 2713 
Q 2441 2713 2670 2916 
Q 2900 3119 2900 3481 
Q 2900 3844 2670 4047 
Q 2441 4250 2034 4250 
Q 1625 4250 1398 4047 
Q 1172 3844 1172 3481 
z
" transform="scale(0.015625)"/>
       </defs>
       <use xlink:href="#DejaVuSans-30"/>
       <use xlink:href="#DejaVuSans-2e" x="63.623047"/>
       <use xlink:href="#DejaVuSans-38" x="95.410156"/>
      </g>
     </g>
    </g>
    <g id="ytick_16">
     <g id="line2d_25">
      <g>
       <use xlink:href="#m9259879441" x="809.424" y="60.48" style="stroke: #000000; stroke-width: 0.8"/>
      </g>
     </g>
     <g id="text_28">
      <!-- 1.0 -->
      <g transform="translate(816.424 64.279219) scale(0.1 -0.1)">
       <use xlink:href="#DejaVuSans-31"/>
       <use xlink:href="#DejaVuSans-2e" x="63.623047"/>
       <use xlink:href="#DejaVuSans-30" x="95.410156"/>
      </g>
     </g>
    </g>
    <g id="text_29">
     <!-- Infected ratio -->
     <g transform="translate(843.925563 448.56) rotate(-90) scale(0.1 -0.1)">
      <use xlink:href="#DejaVuSans-49"/>
      <use xlink:href="#DejaVuSans-6e" x="29.492188"/>
      <use xlink:href="#DejaVuSans-66" x="92.871094"/>
      <use xlink:href="#DejaVuSans-65" x="128.076172"/>
      <use xlink:href="#DejaVuSans-63" x="189.599609"/>
      <use xlink:href="#DejaVuSans-74" x="244.580078"/>
      <use xlink:href="#DejaVuSans-65" x="283.789062"/>
      <use xlink:href="#DejaVuSans-64" x="345.3125"/>
      <use xlink:href="#DejaVuSans-20" x="408.789062"/>
      <use xlink:href="#DejaVuSans-72" x="440.576172"/>
      <use xlink:href="#DejaVuSans-61" x="481.689453"/>
      <use xlink:href="#DejaVuSans-74" x="542.96875"/>
      <use xlink:href="#DejaVuSans-69" x="582.177734"/>
      <use xlink:href="#DejaVuSans-6f" x="609.960938"/>
     </g>
    </g>
   </g>
   <g id="LineCollection_1"/>
   <g id="patch_9">
    <path d="M 790.02 448.56 
L 799.722 448.56 
L 809.424 448.56 
L 809.424 60.48 
L 799.722 60.48 
L 790.02 60.48 
L 790.02 448.56 
z
" style="fill: none; stroke: #000000; stroke-width: 0.8; stroke-linejoin: miter; stroke-linecap: square"/>
   </g>
  </g>
 </g>
 <defs>
  <clipPath id="p28e4282be9">
   <rect x="126" y="60.48" width="624.96" height="388.08"/>
  </clipPath>
  <clipPath id="p003be69a2e">
   <rect x="790.02" y="60.48" width="19.404" height="388.08"/>
  </clipPath>
 </defs>
</svg>
